<svg width="24" height="24" viewBox="0 0 24 24" fill="none" xmlns="http://www.w3.org/2000/svg">
<path d="M15.275 7.81806C14.8489 7.40616 14.8489 6.73859 15.2608 6.31248C15.4738 6.09943 15.7437 6 16.0278 6C16.2977 6 16.5675 6.09943 16.7664 6.31248L21.7234 11.2411C21.9223 11.44 22.0359 11.7099 22.0359 11.9939C22.0359 12.278 21.9223 12.5479 21.7234 12.7467L16.7664 17.6754C16.3545 18.1015 15.6869 18.1015 15.2608 17.6754C14.8489 17.2635 14.8489 16.5817 15.275 16.1698L19.4651 11.9939L15.275 7.81806Z" fill="white"/>
<path d="M6.32138 7.81806C5.89527 7.40616 5.89527 6.73859 6.30718 6.31248C6.52023 6.09943 6.7901 6 7.07417 6C7.34404 6 7.61391 6.09943 7.81276 6.31248L12.7698 11.2411C12.9687 11.44 13.0823 11.7099 13.0823 11.9939C13.0823 12.278 12.9687 12.5479 12.7698 12.7467L7.81276 17.6754C7.40085 18.1015 6.73328 18.1015 6.30718 17.6754C5.89527 17.2635 5.89527 16.5817 6.32138 16.1698L10.5114 11.9939L6.32138 7.81806Z" fill="white"/>
</svg>
